<svg xmlns="http://www.w3.org/2000/svg" id="H1LmUqW-7" viewBox="0 0 110 80"><style>@-webkit-keyframes BJxxUQ8cZZX_Bk2RTq-Z7_Animation{0%{-webkit-transform:translate(-10px,0);transform:translate(-10px,0)}to{-webkit-transform:translate(0,0);transform:translate(0,0)}}@keyframes BJxxUQ8cZZX_Bk2RTq-Z7_Animation{0%{-webkit-transform:translate(-10px,0);transform:translate(-10px,0)}to{-webkit-transform:translate(0,0);transform:translate(0,0)}}@-webkit-keyframes rJ8eUXI9ZZX_SyPGw5-ZQ_Animation{0%{-webkit-transform:scale(1,0);transform:scale(1,0)}40%,to{-webkit-transform:scale(1,1);transform:scale(1,1)}}@keyframes rJ8eUXI9ZZX_SyPGw5-ZQ_Animation{0%{-webkit-transform:scale(1,0);transform:scale(1,0)}40%,to{-webkit-transform:scale(1,1);transform:scale(1,1)}}@-webkit-keyframes rJ8eUXI9ZZX_ry1gv5bWX_Animation{0%,6.67%{-webkit-transform:translate(0,-14px);transform:translate(0,-14px)}to{-webkit-transform:translate(0,0);transform:translate(0,0)}}@keyframes rJ8eUXI9ZZX_ry1gv5bWX_Animation{0%,6.67%{-webkit-transform:translate(0,-14px);transform:translate(0,-14px)}to{-webkit-transform:translate(0,0);transform:translate(0,0)}}@-webkit-keyframes HkKImUqWZQ_r1M559bZm_Animation{0%{-webkit-transform:translate(0,10px);transform:translate(0,10px)}70%{-webkit-transform:translate(0,12px);transform:translate(0,12px)}to{-webkit-transform:translate(0,0);transform:translate(0,0)}}@keyframes HkKImUqWZQ_r1M559bZm_Animation{0%{-webkit-transform:translate(0,10px);transform:translate(0,10px)}70%{-webkit-transform:translate(0,12px);transform:translate(0,12px)}to{-webkit-transform:translate(0,0);transform:translate(0,0)}}@-webkit-keyframes HJDLXL5-Wm_SJqZncWbX_Animation{0%{-webkit-transform:scale(1,0);transform:scale(1,0)}50%,to{-webkit-transform:scale(1,1);transform:scale(1,1)}}@keyframes HJDLXL5-Wm_SJqZncWbX_Animation{0%{-webkit-transform:scale(1,0);transform:scale(1,0)}50%,to{-webkit-transform:scale(1,1);transform:scale(1,1)}}@-webkit-keyframes HJDLXL5-Wm_Hyn_89Z-7_Animation{0%{-webkit-transform:translate(0,12px);transform:translate(0,12px)}50%,to{-webkit-transform:translate(0,0);transform:translate(0,0)}}@keyframes HJDLXL5-Wm_Hyn_89Z-7_Animation{0%{-webkit-transform:translate(0,12px);transform:translate(0,12px)}50%,to{-webkit-transform:translate(0,0);transform:translate(0,0)}}@-webkit-keyframes BJMIQUqbWX_H12RY5bWX_Animation{0%{-webkit-transform:translate(0,4px);transform:translate(0,4px)}50%,to{-webkit-transform:translate(0,0);transform:translate(0,0)}}@keyframes BJMIQUqbWX_H12RY5bWX_Animation{0%{-webkit-transform:translate(0,4px);transform:translate(0,4px)}50%,to{-webkit-transform:translate(0,0);transform:translate(0,0)}}@-webkit-keyframes BJMIQUqbWX_Sy62K9Wb7_Animation{0%{-webkit-transform:scale(1,.8);transform:scale(1,.8)}50%,to{-webkit-transform:scale(1,1);transform:scale(1,1)}}@keyframes BJMIQUqbWX_Sy62K9Wb7_Animation{0%{-webkit-transform:scale(1,.8);transform:scale(1,.8)}50%,to{-webkit-transform:scale(1,1);transform:scale(1,1)}}@-webkit-keyframes HJ-LQ8cbbQ_BJAWtcW-m_Animation{0%{-webkit-transform:translate(10px,0);transform:translate(10px,0)}to{-webkit-transform:translate(0,0);transform:translate(0,0)}}@keyframes HJ-LQ8cbbQ_BJAWtcW-m_Animation{0%{-webkit-transform:translate(10px,0);transform:translate(10px,0)}to{-webkit-transform:translate(0,0);transform:translate(0,0)}}@-webkit-keyframes r1gUmIqb-7_BkyHU9-ZQ_Animation{0%{-webkit-transform:translate(-8px,0);transform:translate(-8px,0)}to{-webkit-transform:translate(0,0);transform:translate(0,0)}}@keyframes r1gUmIqb-7_BkyHU9-ZQ_Animation{0%{-webkit-transform:translate(-8px,0);transform:translate(-8px,0)}to{-webkit-transform:translate(0,0);transform:translate(0,0)}}#H1LmUqW-7 *{-webkit-animation-duration:1s;animation-duration:1s;-webkit-animation-timing-function:cubic-bezier(0,0,1,1);animation-timing-function:cubic-bezier(0,0,1,1)}#r1gUmIqb-7{fill:#eaf0f2}#HyX8QLqbbm{fill:#a2b9c3}#SJNI7U9WZm{fill:#f2f4f5}#ryHIQI5-b7{opacity:.6;fill:#fff;enable-background:new}#SJUImI9bbX{fill:url(#SVGID_1_)}#HkuI7U5WbX{fill:#fff}#HkKImUqWZQ{fill:#ffd871}#SJcUmL9ZZX{fill:#dbe6ed}#rks87L5Z-X{fill:#89a5af}#HJhLQ89b-7{fill:#cad9e0}#BJpLX8qW-7{fill:#b1c6d2}#rJCUQ8cW-7{fill:none}#SkJg8XL5--7{fill:none;stroke:#dbe6ed;stroke-width:.75;stroke-linecap:round;stroke-miterlimit:10}#SkWg87LqZ-X{fill:#dbe6ed}#B1fgImIq-ZQ{fill:url(#SVGID_2_)}#Byml8mLq-Z7{fill:#a2b9c3}#SkNeU7I9-WQ{fill:none;stroke:#a2b9c3;stroke-width:.75;stroke-linecap:round;stroke-miterlimit:10}#BkreIm8c--X{fill:url(#SVGID_3_)}#ByPxIXU9WZm{fill:url(#SVGID_4_)}#HJueIXI5ZZQ{fill:url(#SVGID_5_)}#SJYxIX8qWb7{fill:none;stroke:#c1d0d6;stroke-width:.75;stroke-linecap:round;stroke-miterlimit:10}#r1gUmIqb-7_BkyHU9-ZQ{-webkit-animation-name:r1gUmIqb-7_BkyHU9-ZQ_Animation;animation-name:r1gUmIqb-7_BkyHU9-ZQ_Animation;-webkit-transform:translate(0,0);transform:translate(0,0)}#BJMIQUqbWX_Sy62K9Wb7,#HJ-LQ8cbbQ_BJAWtcW-m,#r1gUmIqb-7_BkyHU9-ZQ{-webkit-transform-origin:50% 50%;transform-origin:50% 50%;transform-box:fill-box}#HJ-LQ8cbbQ_BJAWtcW-m{-webkit-transform:translate(0,0);transform:translate(0,0);-webkit-animation-name:HJ-LQ8cbbQ_BJAWtcW-m_Animation;animation-name:HJ-LQ8cbbQ_BJAWtcW-m_Animation}#BJMIQUqbWX_Sy62K9Wb7{-webkit-animation-name:BJMIQUqbWX_Sy62K9Wb7_Animation;animation-name:BJMIQUqbWX_Sy62K9Wb7_Animation;-webkit-transform:scale(1,1);transform:scale(1,1)}#BJMIQUqbWX_H12RY5bWX{-webkit-animation-name:BJMIQUqbWX_H12RY5bWX_Animation;animation-name:BJMIQUqbWX_H12RY5bWX_Animation;-webkit-transform:translate(0,0);transform:translate(0,0)}#BJMIQUqbWX_H12RY5bWX,#HJDLXL5-Wm_Hyn_89Z-7,#HJDLXL5-Wm_SJqZncWbX{-webkit-transform-origin:50% 50%;transform-origin:50% 50%;transform-box:fill-box}#HJDLXL5-Wm_Hyn_89Z-7{-webkit-transform:translate(0,0);transform:translate(0,0);-webkit-animation-name:HJDLXL5-Wm_Hyn_89Z-7_Animation;animation-name:HJDLXL5-Wm_Hyn_89Z-7_Animation}#HJDLXL5-Wm_SJqZncWbX{-webkit-animation-name:HJDLXL5-Wm_SJqZncWbX_Animation;animation-name:HJDLXL5-Wm_SJqZncWbX_Animation;-webkit-transform:scale(1,1);transform:scale(1,1)}#HkKImUqWZQ_r1M559bZm,#rJ8eUXI9ZZX_ry1gv5bWX{-webkit-transform:translate(0,0);transform:translate(0,0)}#HkKImUqWZQ_r1M559bZm{-webkit-transform-origin:50% 50%;transform-origin:50% 50%;transform-box:fill-box;-webkit-animation-name:HkKImUqWZQ_r1M559bZm_Animation;animation-name:HkKImUqWZQ_r1M559bZm_Animation}#rJ8eUXI9ZZX_ry1gv5bWX{-webkit-animation-name:rJ8eUXI9ZZX_ry1gv5bWX_Animation;animation-name:rJ8eUXI9ZZX_ry1gv5bWX_Animation}#BJxxUQ8cZZX_Bk2RTq-Z7,#rJ8eUXI9ZZX_SyPGw5-ZQ,#rJ8eUXI9ZZX_ry1gv5bWX{-webkit-transform-origin:50% 50%;transform-origin:50% 50%;transform-box:fill-box}#rJ8eUXI9ZZX_SyPGw5-ZQ{-webkit-transform:scale(1,1);transform:scale(1,1);-webkit-animation-name:rJ8eUXI9ZZX_SyPGw5-ZQ_Animation;animation-name:rJ8eUXI9ZZX_SyPGw5-ZQ_Animation}#BJxxUQ8cZZX_Bk2RTq-Z7{-webkit-animation-name:BJxxUQ8cZZX_Bk2RTq-Z7_Animation;animation-name:BJxxUQ8cZZX_Bk2RTq-Z7_Animation;-webkit-transform:translate(0,0);transform:translate(0,0)}</style><g id="r1gUmIqb-7_BkyHU9-ZQ" data-animator-group="true" data-animator-type="0"><path id="r1gUmIqb-7" d="M78.3 6.5c-9-2.9-18.8-.5-25.4 6.2l-.1.1-.2.2c-4.6 5-11.5 7-18.1 5.4-.2-.1-.4-.1-.5-.2l-1.2-.3h-.1A19 19 0 0 0 9.5 31.8c0 .1 0 .1-.1.2-1.5 6.1.1 12.6 4.2 17.4l.2.2c.5.6 1 1.1 1.6 1.6 30.3 29.2 59.4 8.8 70.4-1.3a24.83 24.83 0 0 0 0-39.4 24.7 24.7 0 0 0-7.5-4z"/></g><g id="HJ-LQ8cbbQ_BJAWtcW-m" data-animator-group="true" data-animator-type="0"><g id="HJ-LQ8cbbQ"><g id="BJMIQUqbWX_H12RY5bWX" data-animator-group="true" data-animator-type="0"><g id="BJMIQUqbWX_Sy62K9Wb7" data-animator-group="true" data-animator-type="2"><g id="BJMIQUqbWX"><path id="HyX8QLqbbm" d="M24.5 24.7h55.6c2.2 0 3.9 1.7 3.9 3.9v39.1H20.6v-39c-.1-2.1 1.6-3.9 3.7-4h.2z"/><path id="SJNI7U9WZm" d="M23.6 29.7h57.5v32.2H23.6V29.7z"/><path id="ryHIQI5-b7" d="M62.5 61.9h-39V29.7h7.2c-2.2 5.4-3 10.5-.6 13.7 3.1 4.3 9.4 2.6 17.5 5.9 7.2 3 11.9 8.3 14.9 12.6z"/><linearGradient id="SVGID_1_" x1="52.44" x2="52.44" y1="-276.83" y2="-283.14" gradientTransform="matrix(1 0 0 -1 0 -236)" gradientUnits="userSpaceOnUse"><stop offset="0" stop-color="#ffb098"/><stop offset="1" stop-color="#ff9271"/></linearGradient><path id="SJUImI9bbX" d="M64.1 43.4c0-.4-.2-.7-.4-1l-9.8-8.5c-.8-.7-2.1-.7-2.9 0l-9.8 8.5c-.3.2-.5.6-.4 1v10.7h23.3V43.4z"/><g id="HJDLXL5-Wm_Hyn_89Z-7" data-animator-group="true" data-animator-type="0"><g id="HJDLXL5-Wm_SJqZncWbX" data-animator-group="true" data-animator-type="2"><g id="HJDLXL5-Wm"><path id="HkuI7U5WbX" d="M44 35.5h17.2v20.3H44V35.5z"/><g id="HkKImUqWZQ_r1M559bZm" data-animator-group="true" data-animator-type="0"><path id="HkKImUqWZQ" d="M57.1 40.5l-.4-.7-.7.4-.5.3-.5.3-4.2 2.5c-.7-.8-2-.9-2.8-.1-.8.7-.9 2-.1 2.8.7.8 2 .9 2.8.1.6-.5.8-1.4.5-2.1l4.2-2.5.8 1.4.6-.4-.8-1.3.5-.3.8 1.4.6-.4-.8-1.4zm-7.3 5.2c-.5.3-1.2.1-1.5-.4-.3-.5-.1-1.2.4-1.5.5-.3 1.2-.1 1.5.4.3.5.1 1.2-.4 1.5z"/></g></g></g></g><path id="SJcUmL9ZZX" d="M54 52.9c-.9.8-2.2.8-3.1 0l-10.1-8.8v13.2c0 .8.6 1.5 1.4 1.5h20.3c.8 0 1.5-.6 1.5-1.4V44.1l-10 8.8z"/><path id="HJhLQ89b-7" d="M54 52.9c-.9.8-2.2.8-3.1 0l-10.1-8.8v13.2c0 .8.6 1.5 1.4 1.5h20.3c.8 0 1.5-.6 1.5-1.4V44.1l-10 8.8z"/><path id="BJpLX8qW-7" d="M64.1 44.7v-.6l-10.3 9-6.6 5.7h15.4c.8 0 1.5-.6 1.5-1.4V44.7z"/></g></g></g><path id="rks87L5Z-X" d="M16.9 64.7h70.8c2 0 3.6 1.6 3.6 3.6h-78c0-2 1.6-3.6 3.6-3.6z"/></g></g><path id="rJCUQ8cW-7" d="M.2 0h110v80H.2V0z"/><path id="SkJg8XL5--7" d="M4.3 68.3h5m2.5 0h90.4"/><g id="BJxxUQ8cZZX_Bk2RTq-Z7" data-animator-group="true" data-animator-type="0"><g id="BJxxUQ8cZZX"><path id="SkWg87LqZ-X" d="M76.8 31.8h19.3c1.5 0 2.8 1.3 2.8 2.8v36c0 1.5-1.3 2.8-2.8 2.8H76.9c-1.5 0-2.8-1.3-2.8-2.8v-36c0-1.5 1.1-2.7 2.7-2.8-.1 0 0 0 0 0z"/><linearGradient id="SVGID_2_" x1="68.01" x2="92.47" y1="-269.71" y2="-294.18" gradientTransform="matrix(1 0 0 -1 0 -236)" gradientUnits="userSpaceOnUse"><stop offset="0" stop-color="#ffb098"/><stop offset="1" stop-color="#ff9271"/></linearGradient><path id="B1fgImIq-ZQ" d="M74.1 37h24.8v30.4H74.1V37z"/><circle id="Byml8mLq-Z7" cx="86.5" cy="70" r="1.2"/><path id="SkNeU7I9-WQ" d="M83.2 35.2h6"/><linearGradient id="SVGID_3_" x1="74.05" x2="98.85" y1="-288.3" y2="-288.3" gradientTransform="matrix(1 0 0 -1 0 -236)" gradientUnits="userSpaceOnUse"><stop offset="0" stop-color="#ff9271"/><stop offset="1" stop-color="#ff744a"/></linearGradient><path id="BkreIm8c--X" d="M98.9 61.8L74.1 37.1v30.4h24.8v-5.7z"/><g id="rJ8eUXI9ZZX_ry1gv5bWX" data-animator-group="true" data-animator-type="0"><g id="rJ8eUXI9ZZX_SyPGw5-ZQ" data-animator-group="true" data-animator-type="2"><g id="rJ8eUXI9ZZX"><linearGradient id="SVGID_4_" x1="86.45" x2="86.45" y1="-286.9" y2="-299.66" gradientTransform="matrix(1 0 0 -1 0 -236)" gradientUnits="userSpaceOnUse"><stop offset="0" stop-color="#fff"/><stop offset="1" stop-color="#eaf0f2"/></linearGradient><path id="ByPxIXU9WZm" d="M79 46h14.9c.9 0 1.6.7 1.6 1.6v9.3c0 .9-.7 1.6-1.6 1.6H79c-.9 0-1.6-.7-1.6-1.6v-9.3c0-.9.7-1.6 1.6-1.6z"/><linearGradient id="SVGID_5_" x1="-1496.93" x2="-1490.02" y1="-352.18" y2="-352.18" gradientTransform="scale(1 -1) rotate(59.33 -968.5 1178.5)" gradientUnits="userSpaceOnUse"><stop offset="0" stop-color="#ffb527"/><stop offset="1" stop-color="#ffd871"/></linearGradient><path id="HJueIXI5ZZQ" d="M81.3 48.7h-.6v4.5c-.7.2-1.2.9-1 1.6s.9 1.2 1.6 1c.7-.2 1.2-.9 1-1.6-.1-.5-.5-.9-1-1V50h1v-.5h-1v-.3h1v-.5h-1zm.4 5.8c0 .4-.3.7-.7.7-.4 0-.7-.3-.7-.7 0-.4.3-.7.7-.7.4-.1.7.3.7.7z"/><path id="SJYxIX8qWb7" d="M83.8 49.8h8.9m-8.9 1.6h8.9m-8.9 1.7h8.9m-8.9 1.6h8.9"/></g></g></g></g></g><script>(function(){var a=document.querySelector(&apos;#H1LmUqW-7&apos;),b=a.querySelectorAll(&apos;style&apos;),c=function(d){b.forEach(function(f){var g=f.textContent;g&amp;&amp;(f.textContent=g.replace(/transform-box:[^;\r\n]*/gi,&apos;transform-box: &apos;+d))})};c(&apos;initial&apos;),window.requestAnimationFrame(function(){return c(&apos;fill-box&apos;)})})();</script></svg>